<svg width="100" height="100" viewBox="0 0 100 100" xmlns="http://www.w3.org/2000/svg">
  <path fill="#f0f0f0" d="M50,0 C22.4,0 0,22.4 0,50 C0,77.6 22.4,100 50,100 C77.6,100 100,77.6 100,50 C100,22.4 77.6,0 50,0 Z M50,85 C30.7,85 15,69.3 15,50 C15,30.7 30.7,15 50,15 C69.3,15 85,30.7 85,50 C85,69.3 69.3,85 50,85 Z"/>
  <path fill="#e0e0e0" d="M97,50 L90,50 C90,47.2 89.5,44.5 88.6,41.9 L95,39 C93.6,34.5 91.5,30.3 88.9,26.6 L83,30.5 C81.2,28.2 79.1,26.1 76.8,24.3 L80.7,18.4 C77,15.8 72.8,13.7 68.3,12.3 L65.4,18.7 C62.8,17.8 60.1,17.3 57.3,17.1 L57.3,10.1 C54.9,9.9 52.5,9.8 50,9.8 C47.5,9.8 45.1,9.9 42.7,10.1 L42.7,17.1 C39.9,17.3 37.2,17.8 34.6,18.7 L31.7,12.3 C27.2,13.7 23,15.8 19.3,18.4 L23.2,24.3 C20.9,26.1 18.8,28.2 17,30.5 L11.1,26.6 C8.5,30.3 6.4,34.5 5,39 L11.4,41.9 C10.5,44.5 10,47.2 10,50 L3,50 C3,52.5 3.1,54.9 3.3,57.3 L10.3,57.3 C10.5,60.1 11,62.8 11.9,65.4 L5.5,68.3 C6.9,72.8 9,77 11.6,80.7 L17.5,76.8 C19.3,79.1 21.4,81.2 23.7,83 L19.8,88.9 C23.5,91.5 27.7,93.6 32.2,95 L35.1,88.6 C37.7,89.5 40.4,90 43.2,90.2 L43.2,97.2 C45.6,97.4 48,97.5 50.5,97.5 C53,97.5 55.4,97.4 57.8,97.2 L57.8,90.2 C60.6,90 63.3,89.5 65.9,88.6 L68.8,95 C73.3,93.6 77.5,91.5 81.2,88.9 L77.3,83 C79.6,81.2 81.7,79.1 83.5,76.8 L89.4,80.7 C92,77 94.1,72.8 95.5,68.3 L89.1,65.4 C90,62.8 90.5,60.1 90.7,57.3 L97.7,57.3 C97.9,54.9 98,52.5 98,50 L97,50 Z"/>
</svg>
